<?xml version="1.0" encoding="UTF-8" standalone="no"?>
<!DOCTYPE svg PUBLIC "-//W3C//DTD SVG 1.1//EN"
 "http://www.w3.org/Graphics/SVG/1.1/DTD/svg11.dtd">
<!-- Generated by graphviz version 14.1.0 (20251206.1807)
 -->
<!-- Title: ER_Diagram_Simple Pages: 1 -->
<svg width="6993pt" height="5400pt"
 viewBox="0.00 0.00 6993.00 5400.00" xmlns="http://www.w3.org/2000/svg" xmlns:xlink="http://www.w3.org/1999/xlink">
<g id="graph0" class="graph" transform="scale(1.86239 1.86239) rotate(0) translate(4 2895.5)">
<title>ER_Diagram_Simple</title>
<polygon fill="white" stroke="none" points="-4,4 -4,-2895.5 3750.67,-2895.5 3750.67,4 -4,4"/>
<text xml:space="preserve" text-anchor="middle" x="1873.33" y="-2857.1" font-family="Arial" font-size="32.00">Tribal Knowledge Database Schema</text>
<text xml:space="preserve" text-anchor="middle" x="1873.33" y="-2820.35" font-family="Arial" font-size="32.00">Domain Relationship Overview</text>
<g id="clust1" class="cluster">
<title>cluster_synthetic_250_snowflake</title>
<path fill="white" stroke="#00acc1" stroke-width="4" d="M27.56,-8C27.56,-8 509.34,-8 509.34,-8 515.34,-8 521.34,-14 521.34,-20 521.34,-20 521.34,-1083 521.34,-1083 521.34,-1089 515.34,-1095 509.34,-1095 509.34,-1095 27.56,-1095 27.56,-1095 21.56,-1095 15.56,-1089 15.56,-1083 15.56,-1083 15.56,-20 15.56,-20 15.56,-14 21.56,-8 27.56,-8"/>
<text xml:space="preserve" text-anchor="middle" x="268.45" y="-1064.4" font-family="Arial" font-size="28.00" fill="#00acc1">Snowflake</text>
</g>
<g id="clust2" class="cluster">
<title>cluster_synthetic_250_postgres</title>
<path fill="white" stroke="#1565c0" stroke-width="4" d="M27.56,-1103C27.56,-1103 3719.1,-1103 3719.1,-1103 3725.1,-1103 3731.1,-1109 3731.1,-1115 3731.1,-1115 3731.1,-2790 3731.1,-2790 3731.1,-2796 3725.1,-2802 3719.1,-2802 3719.1,-2802 27.56,-2802 27.56,-2802 21.56,-2802 15.56,-2796 15.56,-2790 15.56,-2790 15.56,-1115 15.56,-1115 15.56,-1109 21.56,-1103 27.56,-1103"/>
<text xml:space="preserve" text-anchor="middle" x="1873.33" y="-2771.4" font-family="Arial" font-size="28.00" fill="#1565c0">PostgreSQL</text>
</g>
<!-- synthetic_250_snowflake|analytics -->
<g id="node1" class="node">
<title>synthetic_250_snowflake|analytics</title>
<path fill="#b3e5fc" stroke="#333333" stroke-width="2" d="M346.1,-105.8C346.1,-105.8 190.1,-105.8 190.1,-105.8 184.1,-105.8 178.1,-99.8 178.1,-93.8 178.1,-93.8 178.1,-60.2 178.1,-60.2 178.1,-54.2 184.1,-48.2 190.1,-48.2 190.1,-48.2 346.1,-48.2 346.1,-48.2 352.1,-48.2 358.1,-54.2 358.1,-60.2 358.1,-60.2 358.1,-93.8 358.1,-93.8 358.1,-99.8 352.1,-105.8 346.1,-105.8"/>
<text xml:space="preserve" text-anchor="middle" x="268.1" y="-80.55" font-family="Times,serif" font-size="16.00">Analytics</text>
<text xml:space="preserve" text-anchor="middle" x="268.1" y="-61.8" font-family="Times,serif" font-size="16.00">(11 tables)</text>
</g>
<!-- synthetic_250_snowflake|content_management -->
<g id="node2" class="node">
<title>synthetic_250_snowflake|content_management</title>
<path fill="#ffe0b2" stroke="#333333" stroke-width="2" d="M346.1,-235.8C346.1,-235.8 190.1,-235.8 190.1,-235.8 184.1,-235.8 178.1,-229.8 178.1,-223.8 178.1,-223.8 178.1,-190.2 178.1,-190.2 178.1,-184.2 184.1,-178.2 190.1,-178.2 190.1,-178.2 346.1,-178.2 346.1,-178.2 352.1,-178.2 358.1,-184.2 358.1,-190.2 358.1,-190.2 358.1,-223.8 358.1,-223.8 358.1,-229.8 352.1,-235.8 346.1,-235.8"/>
<text xml:space="preserve" text-anchor="middle" x="268.1" y="-210.55" font-family="Times,serif" font-size="16.00">Content Management</text>
<text xml:space="preserve" text-anchor="middle" x="268.1" y="-191.8" font-family="Times,serif" font-size="16.00">(9 tables)</text>
</g>
<!-- synthetic_250_snowflake|customer_support -->
<g id="node3" class="node">
<title>synthetic_250_snowflake|customer_support</title>
<path fill="#c8e6c9" stroke="#333333" stroke-width="2" d="M346.1,-365.8C346.1,-365.8 190.1,-365.8 190.1,-365.8 184.1,-365.8 178.1,-359.8 178.1,-353.8 178.1,-353.8 178.1,-320.2 178.1,-320.2 178.1,-314.2 184.1,-308.2 190.1,-308.2 190.1,-308.2 346.1,-308.2 346.1,-308.2 352.1,-308.2 358.1,-314.2 358.1,-320.2 358.1,-320.2 358.1,-353.8 358.1,-353.8 358.1,-359.8 352.1,-365.8 346.1,-365.8"/>
<text xml:space="preserve" text-anchor="middle" x="268.1" y="-340.55" font-family="Times,serif" font-size="16.00">Customer Support</text>
<text xml:space="preserve" text-anchor="middle" x="268.1" y="-321.8" font-family="Times,serif" font-size="16.00">(14 tables)</text>
</g>
<!-- synthetic_250_snowflake|ecommerce -->
<g id="node4" class="node">
<title>synthetic_250_snowflake|ecommerce</title>
<path fill="#fff3e0" stroke="#333333" stroke-width="2" d="M346.1,-495.8C346.1,-495.8 190.1,-495.8 190.1,-495.8 184.1,-495.8 178.1,-489.8 178.1,-483.8 178.1,-483.8 178.1,-450.2 178.1,-450.2 178.1,-444.2 184.1,-438.2 190.1,-438.2 190.1,-438.2 346.1,-438.2 346.1,-438.2 352.1,-438.2 358.1,-444.2 358.1,-450.2 358.1,-450.2 358.1,-483.8 358.1,-483.8 358.1,-489.8 352.1,-495.8 346.1,-495.8"/>
<text xml:space="preserve" text-anchor="middle" x="268.1" y="-470.55" font-family="Times,serif" font-size="16.00">Ecommerce</text>
<text xml:space="preserve" text-anchor="middle" x="268.1" y="-451.8" font-family="Times,serif" font-size="16.00">(12 tables)</text>
</g>
<!-- synthetic_250_snowflake|finance -->
<g id="node5" class="node">
<title>synthetic_250_snowflake|finance</title>
<path fill="#e8f5e9" stroke="#333333" stroke-width="2" d="M346.1,-625.8C346.1,-625.8 190.1,-625.8 190.1,-625.8 184.1,-625.8 178.1,-619.8 178.1,-613.8 178.1,-613.8 178.1,-580.2 178.1,-580.2 178.1,-574.2 184.1,-568.2 190.1,-568.2 190.1,-568.2 346.1,-568.2 346.1,-568.2 352.1,-568.2 358.1,-574.2 358.1,-580.2 358.1,-580.2 358.1,-613.8 358.1,-613.8 358.1,-619.8 352.1,-625.8 346.1,-625.8"/>
<text xml:space="preserve" text-anchor="middle" x="268.1" y="-600.55" font-family="Times,serif" font-size="16.00">Finance</text>
<text xml:space="preserve" text-anchor="middle" x="268.1" y="-581.8" font-family="Times,serif" font-size="16.00">(2 tables)</text>
</g>
<!-- synthetic_250_snowflake|healthcare -->
<g id="node6" class="node">
<title>synthetic_250_snowflake|healthcare</title>
<path fill="#f3e5f5" stroke="#333333" stroke-width="2" d="M346.1,-755.8C346.1,-755.8 190.1,-755.8 190.1,-755.8 184.1,-755.8 178.1,-749.8 178.1,-743.8 178.1,-743.8 178.1,-710.2 178.1,-710.2 178.1,-704.2 184.1,-698.2 190.1,-698.2 190.1,-698.2 346.1,-698.2 346.1,-698.2 352.1,-698.2 358.1,-704.2 358.1,-710.2 358.1,-710.2 358.1,-743.8 358.1,-743.8 358.1,-749.8 352.1,-755.8 346.1,-755.8"/>
<text xml:space="preserve" text-anchor="middle" x="268.1" y="-730.55" font-family="Times,serif" font-size="16.00">Healthcare</text>
<text xml:space="preserve" text-anchor="middle" x="268.1" y="-711.8" font-family="Times,serif" font-size="16.00">(13 tables)</text>
</g>
<!-- synthetic_250_snowflake|marketing -->
<g id="node7" class="node">
<title>synthetic_250_snowflake|marketing</title>
<path fill="#e1f5fe" stroke="#333333" stroke-width="2" d="M346.1,-885.8C346.1,-885.8 190.1,-885.8 190.1,-885.8 184.1,-885.8 178.1,-879.8 178.1,-873.8 178.1,-873.8 178.1,-840.2 178.1,-840.2 178.1,-834.2 184.1,-828.2 190.1,-828.2 190.1,-828.2 346.1,-828.2 346.1,-828.2 352.1,-828.2 358.1,-834.2 358.1,-840.2 358.1,-840.2 358.1,-873.8 358.1,-873.8 358.1,-879.8 352.1,-885.8 346.1,-885.8"/>
<text xml:space="preserve" text-anchor="middle" x="268.1" y="-860.55" font-family="Times,serif" font-size="16.00">Marketing</text>
<text xml:space="preserve" text-anchor="middle" x="268.1" y="-841.8" font-family="Times,serif" font-size="16.00">(11 tables)</text>
</g>
<!-- synthetic_250_snowflake|system -->
<g id="node8" class="node">
<title>synthetic_250_snowflake|system</title>
<path fill="#eceff1" stroke="#333333" stroke-width="2" d="M346.1,-1015.8C346.1,-1015.8 190.1,-1015.8 190.1,-1015.8 184.1,-1015.8 178.1,-1009.8 178.1,-1003.8 178.1,-1003.8 178.1,-970.2 178.1,-970.2 178.1,-964.2 184.1,-958.2 190.1,-958.2 190.1,-958.2 346.1,-958.2 346.1,-958.2 352.1,-958.2 358.1,-964.2 358.1,-970.2 358.1,-970.2 358.1,-1003.8 358.1,-1003.8 358.1,-1009.8 352.1,-1015.8 346.1,-1015.8"/>
<text xml:space="preserve" text-anchor="middle" x="268.1" y="-990.55" font-family="Times,serif" font-size="16.00">System</text>
<text xml:space="preserve" text-anchor="middle" x="268.1" y="-971.8" font-family="Times,serif" font-size="16.00">(18 tables)</text>
</g>
<!-- synthetic_250_postgres|academic -->
<g id="node9" class="node">
<title>synthetic_250_postgres|academic</title>
<path fill="#ede7f6" stroke="#333333" stroke-width="2" d="M346.1,-1310.8C346.1,-1310.8 190.1,-1310.8 190.1,-1310.8 184.1,-1310.8 178.1,-1304.8 178.1,-1298.8 178.1,-1298.8 178.1,-1265.2 178.1,-1265.2 178.1,-1259.2 184.1,-1253.2 190.1,-1253.2 190.1,-1253.2 346.1,-1253.2 346.1,-1253.2 352.1,-1253.2 358.1,-1259.2 358.1,-1265.2 358.1,-1265.2 358.1,-1298.8 358.1,-1298.8 358.1,-1304.8 352.1,-1310.8 346.1,-1310.8"/>
<text xml:space="preserve" text-anchor="middle" x="268.1" y="-1285.55" font-family="Times,serif" font-size="16.00">Academic</text>
<text xml:space="preserve" text-anchor="middle" x="268.1" y="-1266.8" font-family="Times,serif" font-size="16.00">(17 tables)</text>
</g>
<!-- synthetic_250_postgres|accounting -->
<g id="node10" class="node">
<title>synthetic_250_postgres|accounting</title>
<path fill="#e0f7fa" stroke="#333333" stroke-width="2" d="M346.1,-1549.8C346.1,-1549.8 190.1,-1549.8 190.1,-1549.8 184.1,-1549.8 178.1,-1543.8 178.1,-1537.8 178.1,-1537.8 178.1,-1504.2 178.1,-1504.2 178.1,-1498.2 184.1,-1492.2 190.1,-1492.2 190.1,-1492.2 346.1,-1492.2 346.1,-1492.2 352.1,-1492.2 358.1,-1498.2 358.1,-1504.2 358.1,-1504.2 358.1,-1537.8 358.1,-1537.8 358.1,-1543.8 352.1,-1549.8 346.1,-1549.8"/>
<text xml:space="preserve" text-anchor="middle" x="268.1" y="-1524.55" font-family="Times,serif" font-size="16.00">Accounting</text>
<text xml:space="preserve" text-anchor="middle" x="268.1" y="-1505.8" font-family="Times,serif" font-size="16.00">(8 tables)</text>
</g>
<!-- synthetic_250_postgres|finance -->
<g id="node15" class="node">
<title>synthetic_250_postgres|finance</title>
<path fill="#e8f5e9" stroke="#333333" stroke-width="2" d="M988.1,-1970.8C988.1,-1970.8 832.1,-1970.8 832.1,-1970.8 826.1,-1970.8 820.1,-1964.8 820.1,-1958.8 820.1,-1958.8 820.1,-1925.2 820.1,-1925.2 820.1,-1919.2 826.1,-1913.2 832.1,-1913.2 832.1,-1913.2 988.1,-1913.2 988.1,-1913.2 994.1,-1913.2 1000.1,-1919.2 1000.1,-1925.2 1000.1,-1925.2 1000.1,-1958.8 1000.1,-1958.8 1000.1,-1964.8 994.1,-1970.8 988.1,-1970.8"/>
<text xml:space="preserve" text-anchor="middle" x="910.1" y="-1945.55" font-family="Times,serif" font-size="16.00">Finance</text>
<text xml:space="preserve" text-anchor="middle" x="910.1" y="-1926.8" font-family="Times,serif" font-size="16.00">(24 tables)</text>
</g>
<!-- synthetic_250_postgres|accounting&#45;&gt;synthetic_250_postgres|finance -->
<g id="edge3" class="edge">
<title>synthetic_250_postgres|accounting&#45;&gt;synthetic_250_postgres|finance</title>
<path fill="none" stroke="#666666" stroke-width="3" d="M359.07,-1534.47C529.55,-1534.47 880.1,-1534.47 880.1,-1534.47 880.1,-1534.47 880.1,-1818.58 880.1,-1912.36"/>
<text xml:space="preserve" text-anchor="middle" x="589.1" y="-1625.85" font-family="Times,serif" font-size="12.00">4</text>
</g>
<!-- synthetic_250_postgres|orders -->
<g id="node22" class="node">
<title>synthetic_250_postgres|orders</title>
<path fill="#fff8e1" stroke="#333333" stroke-width="2" d="M2272.1,-1503.8C2272.1,-1503.8 2116.1,-1503.8 2116.1,-1503.8 2110.1,-1503.8 2104.1,-1497.8 2104.1,-1491.8 2104.1,-1491.8 2104.1,-1458.2 2104.1,-1458.2 2104.1,-1452.2 2110.1,-1446.2 2116.1,-1446.2 2116.1,-1446.2 2272.1,-1446.2 2272.1,-1446.2 2278.1,-1446.2 2284.1,-1452.2 2284.1,-1458.2 2284.1,-1458.2 2284.1,-1491.8 2284.1,-1491.8 2284.1,-1497.8 2278.1,-1503.8 2272.1,-1503.8"/>
<text xml:space="preserve" text-anchor="middle" x="2194.1" y="-1478.55" font-family="Times,serif" font-size="16.00">Orders</text>
<text xml:space="preserve" text-anchor="middle" x="2194.1" y="-1459.8" font-family="Times,serif" font-size="16.00">(7 tables)</text>
</g>
<!-- synthetic_250_postgres|accounting&#45;&gt;synthetic_250_postgres|orders -->
<g id="edge13" class="edge">
<title>synthetic_250_postgres|accounting&#45;&gt;synthetic_250_postgres|orders</title>
<path fill="none" stroke="#666666" stroke-width="1.5" d="M359.06,-1495.1C683.13,-1495.1 1779.33,-1495.1 2103.25,-1495.1"/>
<text xml:space="preserve" text-anchor="middle" x="1231.1" y="-1304.85" font-family="Times,serif" font-size="12.00">1</text>
</g>
<!-- synthetic_250_postgres|procurement -->
<g id="node23" class="node">
<title>synthetic_250_postgres|procurement</title>
<path fill="#f9fbe7" stroke="#333333" stroke-width="2" d="M2272.1,-1710.8C2272.1,-1710.8 2116.1,-1710.8 2116.1,-1710.8 2110.1,-1710.8 2104.1,-1704.8 2104.1,-1698.8 2104.1,-1698.8 2104.1,-1665.2 2104.1,-1665.2 2104.1,-1659.2 2110.1,-1653.2 2116.1,-1653.2 2116.1,-1653.2 2272.1,-1653.2 2272.1,-1653.2 2278.1,-1653.2 2284.1,-1659.2 2284.1,-1665.2 2284.1,-1665.2 2284.1,-1698.8 2284.1,-1698.8 2284.1,-1704.8 2278.1,-1710.8 2272.1,-1710.8"/>
<text xml:space="preserve" text-anchor="middle" x="2194.1" y="-1685.55" font-family="Times,serif" font-size="16.00">Procurement</text>
<text xml:space="preserve" text-anchor="middle" x="2194.1" y="-1666.8" font-family="Times,serif" font-size="16.00">(6 tables)</text>
</g>
<!-- synthetic_250_postgres|accounting&#45;&gt;synthetic_250_postgres|procurement -->
<g id="edge4" class="edge">
<title>synthetic_250_postgres|accounting&#45;&gt;synthetic_250_postgres|procurement</title>
<path fill="none" stroke="#666666" stroke-width="2" d="M359.06,-1519.13C740.83,-1519.13 2194.1,-1519.13 2194.1,-1519.13 2194.1,-1519.13 2194.1,-1605.57 2194.1,-1652.51"/>
<text xml:space="preserve" text-anchor="middle" x="1231.1" y="-1552.85" font-family="Times,serif" font-size="12.00">2</text>
</g>
<!-- synthetic_250_postgres|content -->
<g id="node11" class="node">
<title>synthetic_250_postgres|content</title>
<path fill="#f5f5f5" stroke="#333333" stroke-width="2" d="M346.1,-1760.8C346.1,-1760.8 190.1,-1760.8 190.1,-1760.8 184.1,-1760.8 178.1,-1754.8 178.1,-1748.8 178.1,-1748.8 178.1,-1715.2 178.1,-1715.2 178.1,-1709.2 184.1,-1703.2 190.1,-1703.2 190.1,-1703.2 346.1,-1703.2 346.1,-1703.2 352.1,-1703.2 358.1,-1709.2 358.1,-1715.2 358.1,-1715.2 358.1,-1748.8 358.1,-1748.8 358.1,-1754.8 352.1,-1760.8 346.1,-1760.8"/>
<text xml:space="preserve" text-anchor="middle" x="268.1" y="-1735.55" font-family="Times,serif" font-size="16.00">Content</text>
<text xml:space="preserve" text-anchor="middle" x="268.1" y="-1716.8" font-family="Times,serif" font-size="16.00">(3 tables)</text>
</g>
<!-- synthetic_250_postgres|customers -->
<g id="node12" class="node">
<title>synthetic_250_postgres|customers</title>
<path fill="#fce4ec" stroke="#333333" stroke-width="2" d="M346.1,-1970.8C346.1,-1970.8 190.1,-1970.8 190.1,-1970.8 184.1,-1970.8 178.1,-1964.8 178.1,-1958.8 178.1,-1958.8 178.1,-1925.2 178.1,-1925.2 178.1,-1919.2 184.1,-1913.2 190.1,-1913.2 190.1,-1913.2 346.1,-1913.2 346.1,-1913.2 352.1,-1913.2 358.1,-1919.2 358.1,-1925.2 358.1,-1925.2 358.1,-1958.8 358.1,-1958.8 358.1,-1964.8 352.1,-1970.8 346.1,-1970.8"/>
<text xml:space="preserve" text-anchor="middle" x="268.1" y="-1945.55" font-family="Times,serif" font-size="16.00">Customers</text>
<text xml:space="preserve" text-anchor="middle" x="268.1" y="-1926.8" font-family="Times,serif" font-size="16.00">(6 tables)</text>
</g>
<!-- synthetic_250_postgres|ecommerce -->
<g id="node13" class="node">
<title>synthetic_250_postgres|ecommerce</title>
<path fill="#fff3e0" stroke="#333333" stroke-width="2" d="M1630.1,-1432.8C1630.1,-1432.8 1474.1,-1432.8 1474.1,-1432.8 1468.1,-1432.8 1462.1,-1426.8 1462.1,-1420.8 1462.1,-1420.8 1462.1,-1387.2 1462.1,-1387.2 1462.1,-1381.2 1468.1,-1375.2 1474.1,-1375.2 1474.1,-1375.2 1630.1,-1375.2 1630.1,-1375.2 1636.1,-1375.2 1642.1,-1381.2 1642.1,-1387.2 1642.1,-1387.2 1642.1,-1420.8 1642.1,-1420.8 1642.1,-1426.8 1636.1,-1432.8 1630.1,-1432.8"/>
<text xml:space="preserve" text-anchor="middle" x="1552.1" y="-1407.55" font-family="Times,serif" font-size="16.00">Ecommerce</text>
<text xml:space="preserve" text-anchor="middle" x="1552.1" y="-1388.8" font-family="Times,serif" font-size="16.00">(9 tables)</text>
</g>
<!-- synthetic_250_postgres|customers&#45;&gt;synthetic_250_postgres|ecommerce -->
<g id="edge8" class="edge">
<title>synthetic_250_postgres|customers&#45;&gt;synthetic_250_postgres|ecommerce</title>
<path fill="none" stroke="#666666" stroke-width="3" d="M358.81,-1920.4C463.69,-1920.4 622.1,-1920.4 622.1,-1920.4 622.1,-1920.4 622.1,-1404 622.1,-1404 622.1,-1404 1227.23,-1404 1461.24,-1404"/>
<text xml:space="preserve" text-anchor="middle" x="910.1" y="-1668.85" font-family="Times,serif" font-size="12.00">4</text>
</g>
<!-- synthetic_250_postgres|customers&#45;&gt;synthetic_250_postgres|finance -->
<g id="edge17" class="edge">
<title>synthetic_250_postgres|customers&#45;&gt;synthetic_250_postgres|finance</title>
<path fill="none" stroke="#666666" stroke-width="2" d="M359.07,-1942C481.26,-1942 697.14,-1942 819.27,-1942"/>
<text xml:space="preserve" text-anchor="middle" x="589.1" y="-1944.85" font-family="Times,serif" font-size="12.00">2</text>
</g>
<!-- synthetic_250_postgres|marketing -->
<g id="node21" class="node">
<title>synthetic_250_postgres|marketing</title>
<path fill="#e1f5fe" stroke="#333333" stroke-width="2" d="M1630.1,-2518.8C1630.1,-2518.8 1474.1,-2518.8 1474.1,-2518.8 1468.1,-2518.8 1462.1,-2512.8 1462.1,-2506.8 1462.1,-2506.8 1462.1,-2473.2 1462.1,-2473.2 1462.1,-2467.2 1468.1,-2461.2 1474.1,-2461.2 1474.1,-2461.2 1630.1,-2461.2 1630.1,-2461.2 1636.1,-2461.2 1642.1,-2467.2 1642.1,-2473.2 1642.1,-2473.2 1642.1,-2506.8 1642.1,-2506.8 1642.1,-2512.8 1636.1,-2518.8 1630.1,-2518.8"/>
<text xml:space="preserve" text-anchor="middle" x="1552.1" y="-2493.55" font-family="Times,serif" font-size="16.00">Marketing</text>
<text xml:space="preserve" text-anchor="middle" x="1552.1" y="-2474.8" font-family="Times,serif" font-size="16.00">(29 tables)</text>
</g>
<!-- synthetic_250_postgres|customers&#45;&gt;synthetic_250_postgres|marketing -->
<g id="edge21" class="edge">
<title>synthetic_250_postgres|customers&#45;&gt;synthetic_250_postgres|marketing</title>
<path fill="none" stroke="#666666" stroke-width="2" d="M359.04,-1956.4C420.35,-1956.4 490.1,-1956.4 490.1,-1956.4 490.1,-1956.4 490.1,-2490 490.1,-2490 490.1,-2490 1204.74,-2490 1461.56,-2490"/>
<text xml:space="preserve" text-anchor="middle" x="910.1" y="-2431.85" font-family="Times,serif" font-size="12.00">2</text>
</g>
<!-- synthetic_250_postgres|customers&#45;&gt;synthetic_250_postgres|orders -->
<g id="edge9" class="edge">
<title>synthetic_250_postgres|customers&#45;&gt;synthetic_250_postgres|orders</title>
<path fill="none" stroke="#666666" stroke-width="2.5" d="M358.95,-1934.8C499.61,-1934.8 754.1,-1934.8 754.1,-1934.8 754.1,-1934.8 754.1,-1498 754.1,-1498 754.1,-1498 1786.99,-1498 2103.21,-1498"/>
<text xml:space="preserve" text-anchor="middle" x="1231.1" y="-1746.85" font-family="Times,serif" font-size="12.00">3</text>
</g>
<!-- synthetic_250_postgres|products -->
<g id="node24" class="node">
<title>synthetic_250_postgres|products</title>
<path fill="#ffebee" stroke="#333333" stroke-width="2" d="M2914.1,-1445.8C2914.1,-1445.8 2758.1,-1445.8 2758.1,-1445.8 2752.1,-1445.8 2746.1,-1439.8 2746.1,-1433.8 2746.1,-1433.8 2746.1,-1400.2 2746.1,-1400.2 2746.1,-1394.2 2752.1,-1388.2 2758.1,-1388.2 2758.1,-1388.2 2914.1,-1388.2 2914.1,-1388.2 2920.1,-1388.2 2926.1,-1394.2 2926.1,-1400.2 2926.1,-1400.2 2926.1,-1433.8 2926.1,-1433.8 2926.1,-1439.8 2920.1,-1445.8 2914.1,-1445.8"/>
<text xml:space="preserve" text-anchor="middle" x="2836.1" y="-1420.55" font-family="Times,serif" font-size="16.00">Products</text>
<text xml:space="preserve" text-anchor="middle" x="2836.1" y="-1401.8" font-family="Times,serif" font-size="16.00">(13 tables)</text>
</g>
<!-- synthetic_250_postgres|customers&#45;&gt;synthetic_250_postgres|products -->
<g id="edge7" class="edge">
<title>synthetic_250_postgres|customers&#45;&gt;synthetic_250_postgres|products</title>
<path fill="none" stroke="#666666" stroke-width="1.5" d="M358.98,-1927.6C482.48,-1927.6 688.1,-1927.6 688.1,-1927.6 688.1,-1927.6 688.1,-1436.05 688.1,-1436.05 688.1,-1436.05 2336.34,-1436.05 2745.18,-1436.05"/>
<text xml:space="preserve" text-anchor="middle" x="1552.1" y="-1217.85" font-family="Times,serif" font-size="12.00">1</text>
</g>
<!-- synthetic_250_postgres|project_management -->
<g id="node25" class="node">
<title>synthetic_250_postgres|project_management</title>
<path fill="#fafafa" stroke="#333333" stroke-width="2" d="M1630.1,-2722.8C1630.1,-2722.8 1474.1,-2722.8 1474.1,-2722.8 1468.1,-2722.8 1462.1,-2716.8 1462.1,-2710.8 1462.1,-2710.8 1462.1,-2677.2 1462.1,-2677.2 1462.1,-2671.2 1468.1,-2665.2 1474.1,-2665.2 1474.1,-2665.2 1630.1,-2665.2 1630.1,-2665.2 1636.1,-2665.2 1642.1,-2671.2 1642.1,-2677.2 1642.1,-2677.2 1642.1,-2710.8 1642.1,-2710.8 1642.1,-2716.8 1636.1,-2722.8 1630.1,-2722.8"/>
<text xml:space="preserve" text-anchor="middle" x="1552.1" y="-2697.55" font-family="Times,serif" font-size="16.00">Project Management</text>
<text xml:space="preserve" text-anchor="middle" x="1552.1" y="-2678.8" font-family="Times,serif" font-size="16.00">(7 tables)</text>
</g>
<!-- synthetic_250_postgres|customers&#45;&gt;synthetic_250_postgres|project_management -->
<g id="edge24" class="edge">
<title>synthetic_250_postgres|customers&#45;&gt;synthetic_250_postgres|project_management</title>
<path fill="none" stroke="#666666" stroke-width="1.5" d="M358.85,-1963.6C393.17,-1963.6 424.1,-1963.6 424.1,-1963.6 424.1,-1963.6 424.1,-2694 424.1,-2694 424.1,-2694 1193.12,-2694 1461.23,-2694"/>
<text xml:space="preserve" text-anchor="middle" x="910.1" y="-2710.85" font-family="Times,serif" font-size="12.00">1</text>
</g>
<!-- synthetic_250_postgres|sales -->
<g id="node27" class="node">
<title>synthetic_250_postgres|sales</title>
<path fill="#f1f8e9" stroke="#333333" stroke-width="2" d="M2272.1,-2434.8C2272.1,-2434.8 2116.1,-2434.8 2116.1,-2434.8 2110.1,-2434.8 2104.1,-2428.8 2104.1,-2422.8 2104.1,-2422.8 2104.1,-2389.2 2104.1,-2389.2 2104.1,-2383.2 2110.1,-2377.2 2116.1,-2377.2 2116.1,-2377.2 2272.1,-2377.2 2272.1,-2377.2 2278.1,-2377.2 2284.1,-2383.2 2284.1,-2389.2 2284.1,-2389.2 2284.1,-2422.8 2284.1,-2422.8 2284.1,-2428.8 2278.1,-2434.8 2272.1,-2434.8"/>
<text xml:space="preserve" text-anchor="middle" x="2194.1" y="-2409.55" font-family="Times,serif" font-size="16.00">Sales</text>
<text xml:space="preserve" text-anchor="middle" x="2194.1" y="-2390.8" font-family="Times,serif" font-size="16.00">(12 tables)</text>
</g>
<!-- synthetic_250_postgres|customers&#45;&gt;synthetic_250_postgres|sales -->
<g id="edge19" class="edge">
<title>synthetic_250_postgres|customers&#45;&gt;synthetic_250_postgres|sales</title>
<path fill="none" stroke="#666666" stroke-width="3" d="M358.83,-1949.2C443.25,-1949.2 556.1,-1949.2 556.1,-1949.2 556.1,-1949.2 556.1,-2403.15 556.1,-2403.15 556.1,-2403.15 1758.95,-2403.15 2103.12,-2403.15"/>
<text xml:space="preserve" text-anchor="middle" x="1231.1" y="-2579.85" font-family="Times,serif" font-size="12.00">4</text>
</g>
<!-- synthetic_250_postgres|ecommerce&#45;&gt;synthetic_250_postgres|orders -->
<g id="edge12" class="edge">
<title>synthetic_250_postgres|ecommerce&#45;&gt;synthetic_250_postgres|orders</title>
<path fill="none" stroke="#666666" stroke-width="1.5" d="M1643.07,-1417.93C1813.55,-1417.93 2164.1,-1417.93 2164.1,-1417.93 2164.1,-1417.93 2164.1,-1431.54 2164.1,-1445.46"/>
<text xml:space="preserve" text-anchor="middle" x="1873.1" y="-1461.85" font-family="Times,serif" font-size="12.00">1</text>
</g>
<!-- synthetic_250_postgres|ecommerce&#45;&gt;synthetic_250_postgres|products -->
<g id="edge6" class="edge">
<title>synthetic_250_postgres|ecommerce&#45;&gt;synthetic_250_postgres|products</title>
<path fill="none" stroke="#666666" stroke-width="4.5" d="M1642.9,-1403.07C1878.81,-1403.07 2509.09,-1403.07 2745.16,-1403.07"/>
<text xml:space="preserve" text-anchor="middle" x="2194.1" y="-1362.85" font-family="Times,serif" font-size="12.00">7</text>
</g>
<!-- synthetic_250_postgres|education -->
<g id="node14" class="node">
<title>synthetic_250_postgres|education</title>
<path fill="#e8eaf6" stroke="#333333" stroke-width="2" d="M346.1,-2411.8C346.1,-2411.8 190.1,-2411.8 190.1,-2411.8 184.1,-2411.8 178.1,-2405.8 178.1,-2399.8 178.1,-2399.8 178.1,-2366.2 178.1,-2366.2 178.1,-2360.2 184.1,-2354.2 190.1,-2354.2 190.1,-2354.2 346.1,-2354.2 346.1,-2354.2 352.1,-2354.2 358.1,-2360.2 358.1,-2366.2 358.1,-2366.2 358.1,-2399.8 358.1,-2399.8 358.1,-2405.8 352.1,-2411.8 346.1,-2411.8"/>
<text xml:space="preserve" text-anchor="middle" x="268.1" y="-2386.55" font-family="Times,serif" font-size="16.00">Education</text>
<text xml:space="preserve" text-anchor="middle" x="268.1" y="-2367.8" font-family="Times,serif" font-size="16.00">(7 tables)</text>
</g>
<!-- synthetic_250_postgres|healthcare -->
<g id="node16" class="node">
<title>synthetic_250_postgres|healthcare</title>
<path fill="#f3e5f5" stroke="#333333" stroke-width="2" d="M1630.1,-2072.8C1630.1,-2072.8 1474.1,-2072.8 1474.1,-2072.8 1468.1,-2072.8 1462.1,-2066.8 1462.1,-2060.8 1462.1,-2060.8 1462.1,-2027.2 1462.1,-2027.2 1462.1,-2021.2 1468.1,-2015.2 1474.1,-2015.2 1474.1,-2015.2 1630.1,-2015.2 1630.1,-2015.2 1636.1,-2015.2 1642.1,-2021.2 1642.1,-2027.2 1642.1,-2027.2 1642.1,-2060.8 1642.1,-2060.8 1642.1,-2066.8 1636.1,-2072.8 1630.1,-2072.8"/>
<text xml:space="preserve" text-anchor="middle" x="1552.1" y="-2047.55" font-family="Times,serif" font-size="16.00">Healthcare</text>
<text xml:space="preserve" text-anchor="middle" x="1552.1" y="-2028.8" font-family="Times,serif" font-size="16.00">(22 tables)</text>
</g>
<!-- synthetic_250_postgres|finance&#45;&gt;synthetic_250_postgres|healthcare -->
<g id="edge25" class="edge">
<title>synthetic_250_postgres|finance&#45;&gt;synthetic_250_postgres|healthcare</title>
<path fill="none" stroke="#666666" stroke-width="3" d="M1001.07,-1951.6C1178.17,-1951.6 1552.1,-1951.6 1552.1,-1951.6 1552.1,-1951.6 1552.1,-1987.24 1552.1,-2014.26"/>
<text xml:space="preserve" text-anchor="middle" x="1231.1" y="-2034.85" font-family="Times,serif" font-size="12.00">4</text>
</g>
<!-- synthetic_250_postgres|hr -->
<g id="node17" class="node">
<title>synthetic_250_postgres|hr</title>
<path fill="#e3f2fd" stroke="#333333" stroke-width="2" d="M2272.1,-2146.8C2272.1,-2146.8 2116.1,-2146.8 2116.1,-2146.8 2110.1,-2146.8 2104.1,-2140.8 2104.1,-2134.8 2104.1,-2134.8 2104.1,-2101.2 2104.1,-2101.2 2104.1,-2095.2 2110.1,-2089.2 2116.1,-2089.2 2116.1,-2089.2 2272.1,-2089.2 2272.1,-2089.2 2278.1,-2089.2 2284.1,-2095.2 2284.1,-2101.2 2284.1,-2101.2 2284.1,-2134.8 2284.1,-2134.8 2284.1,-2140.8 2278.1,-2146.8 2272.1,-2146.8"/>
<text xml:space="preserve" text-anchor="middle" x="2194.1" y="-2121.55" font-family="Times,serif" font-size="16.00">Hr</text>
<text xml:space="preserve" text-anchor="middle" x="2194.1" y="-2102.8" font-family="Times,serif" font-size="16.00">(26 tables)</text>
</g>
<!-- synthetic_250_postgres|finance&#45;&gt;synthetic_250_postgres|hr -->
<g id="edge2" class="edge">
<title>synthetic_250_postgres|finance&#45;&gt;synthetic_250_postgres|hr</title>
<path fill="none" stroke="#666666" stroke-width="2" d="M955.1,-1971.41C955.1,-2023.74 955.1,-2127.6 955.1,-2127.6 955.1,-2127.6 1817.37,-2127.6 2103.25,-2127.6"/>
<text xml:space="preserve" text-anchor="middle" x="1552.1" y="-2219.85" font-family="Times,serif" font-size="12.00">2</text>
</g>
<!-- synthetic_250_postgres|inventory -->
<g id="node18" class="node">
<title>synthetic_250_postgres|inventory</title>
<path fill="#e0f2f1" stroke="#333333" stroke-width="2" d="M1630.1,-1710.8C1630.1,-1710.8 1474.1,-1710.8 1474.1,-1710.8 1468.1,-1710.8 1462.1,-1704.8 1462.1,-1698.8 1462.1,-1698.8 1462.1,-1665.2 1462.1,-1665.2 1462.1,-1659.2 1468.1,-1653.2 1474.1,-1653.2 1474.1,-1653.2 1630.1,-1653.2 1630.1,-1653.2 1636.1,-1653.2 1642.1,-1659.2 1642.1,-1665.2 1642.1,-1665.2 1642.1,-1698.8 1642.1,-1698.8 1642.1,-1704.8 1636.1,-1710.8 1630.1,-1710.8"/>
<text xml:space="preserve" text-anchor="middle" x="1552.1" y="-1685.55" font-family="Times,serif" font-size="16.00">Inventory</text>
<text xml:space="preserve" text-anchor="middle" x="1552.1" y="-1666.8" font-family="Times,serif" font-size="16.00">(20 tables)</text>
</g>
<!-- synthetic_250_postgres|finance&#45;&gt;synthetic_250_postgres|inventory -->
<g id="edge16" class="edge">
<title>synthetic_250_postgres|finance&#45;&gt;synthetic_250_postgres|inventory</title>
<path fill="none" stroke="#666666" stroke-width="2" d="M940.1,-1912.24C940.1,-1849 940.1,-1707 940.1,-1707 940.1,-1707 1290.66,-1707 1461.14,-1707"/>
<text xml:space="preserve" text-anchor="middle" x="1231.1" y="-1837.85" font-family="Times,serif" font-size="12.00">2</text>
</g>
<!-- synthetic_250_postgres|finance&#45;&gt;synthetic_250_postgres|procurement -->
<g id="edge5" class="edge">
<title>synthetic_250_postgres|finance&#45;&gt;synthetic_250_postgres|procurement</title>
<path fill="none" stroke="#666666" stroke-width="2" d="M1000.9,-1932.4C1293.71,-1932.4 2194.1,-1932.4 2194.1,-1932.4 2194.1,-1932.4 2194.1,-1778.04 2194.1,-1711.71"/>
<text xml:space="preserve" text-anchor="middle" x="1552.1" y="-1857.85" font-family="Times,serif" font-size="12.00">2</text>
</g>
<!-- synthetic_250_postgres|finance&#45;&gt;synthetic_250_postgres|sales -->
<g id="edge18" class="edge">
<title>synthetic_250_postgres|finance&#45;&gt;synthetic_250_postgres|sales</title>
<path fill="none" stroke="#666666" stroke-width="3.5" d="M910.1,-1971.69C910.1,-2072.36 910.1,-2394.5 910.1,-2394.5 910.1,-2394.5 1810.5,-2394.5 2103.3,-2394.5"/>
<text xml:space="preserve" text-anchor="middle" x="1552.1" y="-2377.85" font-family="Times,serif" font-size="12.00">5</text>
</g>
<!-- synthetic_250_postgres|system -->
<g id="node28" class="node">
<title>synthetic_250_postgres|system</title>
<path fill="#eceff1" stroke="#333333" stroke-width="2" d="M3556.1,-2484.8C3556.1,-2484.8 3400.1,-2484.8 3400.1,-2484.8 3394.1,-2484.8 3388.1,-2478.8 3388.1,-2472.8 3388.1,-2472.8 3388.1,-2439.2 3388.1,-2439.2 3388.1,-2433.2 3394.1,-2427.2 3400.1,-2427.2 3400.1,-2427.2 3556.1,-2427.2 3556.1,-2427.2 3562.1,-2427.2 3568.1,-2433.2 3568.1,-2439.2 3568.1,-2439.2 3568.1,-2472.8 3568.1,-2472.8 3568.1,-2478.8 3562.1,-2484.8 3556.1,-2484.8"/>
<text xml:space="preserve" text-anchor="middle" x="3478.1" y="-2459.55" font-family="Times,serif" font-size="16.00">System</text>
<text xml:space="preserve" text-anchor="middle" x="3478.1" y="-2440.8" font-family="Times,serif" font-size="16.00">(15 tables)</text>
</g>
<!-- synthetic_250_postgres|finance&#45;&gt;synthetic_250_postgres|system -->
<g id="edge23" class="edge">
<title>synthetic_250_postgres|finance&#45;&gt;synthetic_250_postgres|system</title>
<path fill="none" stroke="#666666" stroke-width="1.5" d="M865.1,-1971.76C865.1,-2080.23 865.1,-2448 865.1,-2448 865.1,-2448 2926.42,-2448 3387.4,-2448"/>
<text xml:space="preserve" text-anchor="middle" x="2194.1" y="-1944.85" font-family="Times,serif" font-size="12.00">1</text>
</g>
<!-- synthetic_250_postgres|healthcare&#45;&gt;synthetic_250_postgres|hr -->
<g id="edge1" class="edge">
<title>synthetic_250_postgres|healthcare&#45;&gt;synthetic_250_postgres|hr</title>
<path fill="none" stroke="#666666" stroke-width="1.5" d="M1582.1,-2073.56C1582.1,-2090.49 1582.1,-2108.4 1582.1,-2108.4 1582.1,-2108.4 1932.66,-2108.4 2103.14,-2108.4"/>
<text xml:space="preserve" text-anchor="middle" x="1873.1" y="-2061.85" font-family="Times,serif" font-size="12.00">1</text>
</g>
<!-- synthetic_250_postgres|healthcare&#45;&gt;synthetic_250_postgres|sales -->
<g id="edge26" class="edge">
<title>synthetic_250_postgres|healthcare&#45;&gt;synthetic_250_postgres|sales</title>
<path fill="none" stroke="#666666" stroke-width="2.5" d="M1522.1,-2073.74C1522.1,-2156.91 1522.1,-2385.85 1522.1,-2385.85 1522.1,-2385.85 1919.54,-2385.85 2103.13,-2385.85"/>
<text xml:space="preserve" text-anchor="middle" x="1873.1" y="-2183.85" font-family="Times,serif" font-size="12.00">3</text>
</g>
<!-- synthetic_250_postgres|projects -->
<g id="node26" class="node">
<title>synthetic_250_postgres|projects</title>
<path fill="#fbe9e7" stroke="#333333" stroke-width="2" d="M2914.1,-2419.8C2914.1,-2419.8 2758.1,-2419.8 2758.1,-2419.8 2752.1,-2419.8 2746.1,-2413.8 2746.1,-2407.8 2746.1,-2407.8 2746.1,-2374.2 2746.1,-2374.2 2746.1,-2368.2 2752.1,-2362.2 2758.1,-2362.2 2758.1,-2362.2 2914.1,-2362.2 2914.1,-2362.2 2920.1,-2362.2 2926.1,-2368.2 2926.1,-2374.2 2926.1,-2374.2 2926.1,-2407.8 2926.1,-2407.8 2926.1,-2413.8 2920.1,-2419.8 2914.1,-2419.8"/>
<text xml:space="preserve" text-anchor="middle" x="2836.1" y="-2394.55" font-family="Times,serif" font-size="16.00">Projects</text>
<text xml:space="preserve" text-anchor="middle" x="2836.1" y="-2375.8" font-family="Times,serif" font-size="16.00">(15 tables)</text>
</g>
<!-- synthetic_250_postgres|hr&#45;&gt;synthetic_250_postgres|projects -->
<g id="edge28" class="edge">
<title>synthetic_250_postgres|hr&#45;&gt;synthetic_250_postgres|projects</title>
<path fill="none" stroke="#666666" stroke-width="1.5" d="M2194.1,-2147.57C2194.1,-2213.58 2194.1,-2367.2 2194.1,-2367.2 2194.1,-2367.2 2568.04,-2367.2 2745.14,-2367.2"/>
<text xml:space="preserve" text-anchor="middle" x="2515.1" y="-2382.85" font-family="Times,serif" font-size="12.00">1</text>
</g>
<!-- synthetic_250_postgres|inventory&#45;&gt;synthetic_250_postgres|orders -->
<g id="edge10" class="edge">
<title>synthetic_250_postgres|inventory&#45;&gt;synthetic_250_postgres|orders</title>
<path fill="none" stroke="#666666" stroke-width="3" d="M1552.1,-1652.5C1552.1,-1601.18 1552.1,-1500.9 1552.1,-1500.9 1552.1,-1500.9 1926.04,-1500.9 2103.14,-1500.9"/>
<text xml:space="preserve" text-anchor="middle" x="1873.1" y="-1574.85" font-family="Times,serif" font-size="12.00">4</text>
</g>
<!-- synthetic_250_postgres|inventory&#45;&gt;synthetic_250_postgres|procurement -->
<g id="edge15" class="edge">
<title>synthetic_250_postgres|inventory&#45;&gt;synthetic_250_postgres|procurement</title>
<path fill="none" stroke="#666666" stroke-width="2.5" d="M1643.07,-1682C1765.26,-1682 1981.14,-1682 2103.27,-1682"/>
<text xml:space="preserve" text-anchor="middle" x="1873.1" y="-1684.85" font-family="Times,serif" font-size="12.00">3</text>
</g>
<!-- synthetic_250_postgres|it -->
<g id="node19" class="node">
<title>synthetic_250_postgres|it</title>
<path fill="#efebe9" stroke="#333333" stroke-width="2" d="M2272.1,-2722.8C2272.1,-2722.8 2116.1,-2722.8 2116.1,-2722.8 2110.1,-2722.8 2104.1,-2716.8 2104.1,-2710.8 2104.1,-2710.8 2104.1,-2677.2 2104.1,-2677.2 2104.1,-2671.2 2110.1,-2665.2 2116.1,-2665.2 2116.1,-2665.2 2272.1,-2665.2 2272.1,-2665.2 2278.1,-2665.2 2284.1,-2671.2 2284.1,-2677.2 2284.1,-2677.2 2284.1,-2710.8 2284.1,-2710.8 2284.1,-2716.8 2278.1,-2722.8 2272.1,-2722.8"/>
<text xml:space="preserve" text-anchor="middle" x="2194.1" y="-2697.55" font-family="Times,serif" font-size="16.00">It</text>
<text xml:space="preserve" text-anchor="middle" x="2194.1" y="-2678.8" font-family="Times,serif" font-size="16.00">(5 tables)</text>
</g>
<!-- synthetic_250_postgres|it_infrastructure -->
<g id="node20" class="node">
<title>synthetic_250_postgres|it_infrastructure</title>
<path fill="#fff9c4" stroke="#333333" stroke-width="2" d="M2914.1,-2549.8C2914.1,-2549.8 2758.1,-2549.8 2758.1,-2549.8 2752.1,-2549.8 2746.1,-2543.8 2746.1,-2537.8 2746.1,-2537.8 2746.1,-2504.2 2746.1,-2504.2 2746.1,-2498.2 2752.1,-2492.2 2758.1,-2492.2 2758.1,-2492.2 2914.1,-2492.2 2914.1,-2492.2 2920.1,-2492.2 2926.1,-2498.2 2926.1,-2504.2 2926.1,-2504.2 2926.1,-2537.8 2926.1,-2537.8 2926.1,-2543.8 2920.1,-2549.8 2914.1,-2549.8"/>
<text xml:space="preserve" text-anchor="middle" x="2836.1" y="-2524.55" font-family="Times,serif" font-size="16.00">It Infrastructure</text>
<text xml:space="preserve" text-anchor="middle" x="2836.1" y="-2505.8" font-family="Times,serif" font-size="16.00">(4 tables)</text>
</g>
<!-- synthetic_250_postgres|it&#45;&gt;synthetic_250_postgres|it_infrastructure -->
<g id="edge30" class="edge">
<title>synthetic_250_postgres|it&#45;&gt;synthetic_250_postgres|it_infrastructure</title>
<path fill="none" stroke="#666666" stroke-width="2" d="M2239.1,-2664.34C2239.1,-2618.15 2239.1,-2534.3 2239.1,-2534.3 2239.1,-2534.3 2577.98,-2534.3 2745.11,-2534.3"/>
<text xml:space="preserve" text-anchor="middle" x="2515.1" y="-2668.85" font-family="Times,serif" font-size="12.00">2</text>
</g>
<!-- synthetic_250_postgres|it&#45;&gt;synthetic_250_postgres|system -->
<g id="edge32" class="edge">
<title>synthetic_250_postgres|it&#45;&gt;synthetic_250_postgres|system</title>
<path fill="none" stroke="#666666" stroke-width="1.5" d="M2194.1,-2664.51C2194.1,-2604.83 2194.1,-2475.36 2194.1,-2475.36 2194.1,-2475.36 3094.5,-2475.36 3387.3,-2475.36"/>
<text xml:space="preserve" text-anchor="middle" x="2836.1" y="-2696.85" font-family="Times,serif" font-size="12.00">1</text>
</g>
<!-- synthetic_250_postgres|it_infrastructure&#45;&gt;synthetic_250_postgres|system -->
<g id="edge31" class="edge">
<title>synthetic_250_postgres|it_infrastructure&#45;&gt;synthetic_250_postgres|system</title>
<path fill="none" stroke="#666666" stroke-width="3" d="M2866.1,-2491.26C2866.1,-2484.92 2866.1,-2480.08 2866.1,-2480.08 2866.1,-2480.08 3216.66,-2480.08 3387.14,-2480.08"/>
<text xml:space="preserve" text-anchor="middle" x="3157.1" y="-2504.85" font-family="Times,serif" font-size="12.00">4</text>
</g>
<!-- synthetic_250_postgres|marketing&#45;&gt;synthetic_250_postgres|products -->
<g id="edge14" class="edge">
<title>synthetic_250_postgres|marketing&#45;&gt;synthetic_250_postgres|products</title>
<path fill="none" stroke="#666666" stroke-width="2" d="M1642.7,-2470.64C1882.43,-2470.64 2515.1,-2470.64 2515.1,-2470.64 2515.1,-2470.64 2515.1,-1442.55 2515.1,-1442.55 2515.1,-1442.55 2650.48,-1442.55 2745.41,-1442.55"/>
<text xml:space="preserve" text-anchor="middle" x="2194.1" y="-2293.85" font-family="Times,serif" font-size="12.00">2</text>
</g>
<!-- synthetic_250_postgres|marketing&#45;&gt;synthetic_250_postgres|sales -->
<g id="edge20" class="edge">
<title>synthetic_250_postgres|marketing&#45;&gt;synthetic_250_postgres|sales</title>
<path fill="none" stroke="#666666" stroke-width="2" d="M1643.1,-2465.92C1810.22,-2465.92 2149.1,-2465.92 2149.1,-2465.92 2149.1,-2465.92 2149.1,-2450.71 2149.1,-2435.61"/>
<text xml:space="preserve" text-anchor="middle" x="1873.1" y="-2475.85" font-family="Times,serif" font-size="12.00">2</text>
</g>
<!-- synthetic_250_postgres|orders&#45;&gt;synthetic_250_postgres|products -->
<g id="edge11" class="edge">
<title>synthetic_250_postgres|orders&#45;&gt;synthetic_250_postgres|products</title>
<path fill="none" stroke="#666666" stroke-width="2" d="M2224.1,-1445.52C2224.1,-1441.82 2224.1,-1439.3 2224.1,-1439.3 2224.1,-1439.3 2574.66,-1439.3 2745.14,-1439.3"/>
<text xml:space="preserve" text-anchor="middle" x="2515.1" y="-1459.85" font-family="Times,serif" font-size="12.00">2</text>
</g>
<!-- synthetic_250_postgres|project_management&#45;&gt;synthetic_250_postgres|projects -->
<g id="edge27" class="edge">
<title>synthetic_250_postgres|project_management&#45;&gt;synthetic_250_postgres|projects</title>
<path fill="none" stroke="#666666" stroke-width="3.5" d="M1642.96,-2684.4C1712.33,-2684.4 1796.1,-2684.4 1796.1,-2684.4 1796.1,-2684.4 1796.1,-2372.2 1796.1,-2372.2 1796.1,-2372.2 2491.77,-2372.2 2745.18,-2372.2"/>
<text xml:space="preserve" text-anchor="middle" x="2194.1" y="-2581.85" font-family="Times,serif" font-size="12.00">5</text>
</g>
<!-- synthetic_250_postgres|project_management&#45;&gt;synthetic_250_postgres|sales -->
<g id="edge22" class="edge">
<title>synthetic_250_postgres|project_management&#45;&gt;synthetic_250_postgres|sales</title>
<path fill="none" stroke="#666666" stroke-width="1.5" d="M1642.91,-2703.6C1760.38,-2703.6 1950.1,-2703.6 1950.1,-2703.6 1950.1,-2703.6 1950.1,-2423.3 1950.1,-2423.3 1950.1,-2423.3 2033.87,-2423.3 2103.25,-2423.3"/>
<text xml:space="preserve" text-anchor="middle" x="1873.1" y="-2577.85" font-family="Times,serif" font-size="12.00">1</text>
</g>
<!-- synthetic_250_postgres|projects&#45;&gt;synthetic_250_postgres|system -->
<g id="edge29" class="edge">
<title>synthetic_250_postgres|projects&#45;&gt;synthetic_250_postgres|system</title>
<path fill="none" stroke="#666666" stroke-width="1.5" d="M2806.1,-2420.49C2806.1,-2426.49 2806.1,-2431 2806.1,-2431 2806.1,-2431 3203.54,-2431 3387.13,-2431"/>
<text xml:space="preserve" text-anchor="middle" x="3157.1" y="-2403.85" font-family="Times,serif" font-size="12.00">1</text>
</g>
</g>
</svg>
